<?xml version="1.0" encoding="utf-8"?>
<!-- Generator: Adobe Illustrator 19.0.0, SVG Export Plug-In . SVG Version: 6.00 Build 0)  -->
<svg version="1.1" id="Layer_1" xmlns="http://www.w3.org/2000/svg" xmlns:xlink="http://www.w3.org/1999/xlink" x="0px" y="0px"
	 width="1920px" height="1080px" viewBox="0 0 1920 1080" enable-background="new 0 0 1920 1080" xml:space="preserve">
<linearGradient id="XMLID_99_" gradientUnits="userSpaceOnUse" x1="1318.615" y1="-267.2616" x2="1318.615" y2="216.1592">
	<stop  offset="4.301075e-002" style="stop-color:#4AA2FF"/>
	<stop  offset="1" style="stop-color:#81E1FF"/>
</linearGradient>
<path id="XMLID_93_" fill-rule="evenodd" clip-rule="evenodd" fill="url(#XMLID_99_)" d="M1920,0v1080H805.2
	c-12.3-23.4-23.4-47.6-33.3-72.3c-22.4-56.2-38.4-115.6-47.1-177.4c-5-35.3-7.5-71.5-7.5-108.2c0-330.7,208.3-612.7,500.8-722.1
	H1920z"/>
<path id="XMLID_83_" opacity="0.45" fill-rule="evenodd" clip-rule="evenodd" fill="#FFFFFF" d="M1416.1,502.1
	c-0.2,0-0.3-0.1-0.5-0.1c-11-1.7-21.1-6.7-29.5-14c-12.1-10.7-27.5-17.7-44.7-19.4c-0.1,0-0.2,0-0.3,0c-10.7-1-20.5-6.4-27.1-14.9
	c-18.5-23.9-46.4-40.3-78.8-43.5c-45.4-4.4-87.2,18.5-109,55.3c-2.9,4.9-8.4,7.7-14.1,7.1c0,0-0.1,0-0.1,0
	c-39.4-3.9-74.5,25.3-77.8,64.9c-3.3,39,25.1,73,64,76.8c6.2,0.6,12.2,0.4,18-0.5c17.9-2.8,36.2-0.1,51.9,8.8
	c13.4,7.6,28.6,12.6,45,14.2c19.1,1.9,37.6-1.1,54.3-8c15.3-6.3,32.1-7.7,48.1-3.9c3.4,0.8,7,1.4,10.6,1.8
	c18.8,1.8,36.6-3,51.2-12.6c7.3-4.8,16-6.9,24.7-6c0,0,0.1,0,0.1,0c30.1,2.9,56.8-19.7,58.5-50.1
	C1462.1,530.8,1442.8,506.6,1416.1,502.1z"/>
<g id="XMLID_1_">
	<path id="XMLID_78_" fill-rule="evenodd" clip-rule="evenodd" fill="#1D95E1" d="M1588.6,725.2l81.5-13.9l135.4-95.1l59,14.8
		l-98,153.9C1737.1,770.3,1657.3,752.5,1588.6,725.2"/>
	<linearGradient id="XMLID_100_" gradientUnits="userSpaceOnUse" x1="1598.73" y1="705.4255" x2="1864.3721" y2="705.4255">
		<stop  offset="0.1505" style="stop-color:#1D72D2"/>
		<stop  offset="1" style="stop-color:#074AB3"/>
	</linearGradient>
	<path id="XMLID_77_" fill-rule="evenodd" clip-rule="evenodd" fill="url(#XMLID_100_)" d="M1864.4,635l-98,153.9
		c-27.8-13.9-101.4-30.6-167.7-55.8l75.9-12.9l137.6-98.3L1864.4,635z"/>
	<linearGradient id="XMLID_101_" gradientUnits="userSpaceOnUse" x1="819.2135" y1="678.2" x2="1789.2891" y2="678.2">
		<stop  offset="4.301075e-002" style="stop-color:#F0F1F3"/>
		<stop  offset="1" style="stop-color:#D1D1D1"/>
	</linearGradient>
	<path id="XMLID_76_" fill-rule="evenodd" clip-rule="evenodd" fill="url(#XMLID_101_)" d="M820.7,579.4c-3.1-5.1-1.2-12.1,4-14.9
		c23.2-12.5,90.6-40.8,190.9-14.2c129.7,34.4,409.9,100.3,533.2,141.5c113.2,37.9,216.5,90.1,237.6,101c2.3,1.2,3.4,3.7,2.7,6.1
		l-0.2,0.9c-1.1,3.9-4.1,6.9-8.1,7.9c-27.4,6.9-141.5,27.9-348-29.8c-227-63.4-512.1-134.5-554.9-152.5
		C845.6,611.9,828.8,592.9,820.7,579.4L820.7,579.4z"/>
	<path id="XMLID_75_" fill-rule="evenodd" clip-rule="evenodd" fill="#D7D8D8" d="M1759.1,804.4l-12.5-16
		c-24.9-5.1-51.8-11.1-72.6-16.7c-41-11.1-59.1-23.9-64.8-28.8l60.8,55.9C1705.5,802.7,1735.5,804.2,1759.1,804.4"/>
	<path id="XMLID_114_" fill-rule="evenodd" clip-rule="evenodd" fill="#FFFFFF" d="M1776,787.6c-50.5-20.4-144.9-55.8-230.2-84.5
		c-123.2-41.4-403.2-107.6-532.9-142.2c-46.2-12.3-86.5-15.1-118.9-13.4c-13.7,0.7-26,2.3-36.6,4.3c-2.4,0.5-4.8,0.9-7.1,1.4
		c0.3-0.1,0.7-0.2,1-0.4c0.6-0.2,1.1-0.4,1.7-0.6c0.6-0.2,1.1-0.4,1.7-0.6c0.3-0.1,0.7-0.2,1-0.3c0.3-0.1,0.5-0.2,0.8-0.2
		c1.8-0.6,3.6-1.2,5.5-1.7c3.2-0.9,6.5-1.9,9.9-2.7c4.6-1.2,9.4-2.2,14.5-3.2c11.9-2.2,25.1-3.7,39.7-4.2c3.8-0.1,7.7-0.2,11.6-0.1
		c1,0,2,0,3,0.1c1,0,2,0.1,3,0.1c1,0,2,0.1,3.1,0.1c1,0,2,0.1,3.1,0.2c8.4,0.5,17.2,1.3,26.3,2.6c0.8,0.1,1.6,0.2,2.4,0.3
		c2.8,0.4,5.5,0.9,8.4,1.4c1,0.2,2,0.3,2.9,0.5c1.7,0.3,3.3,0.6,5,1c6.7,1.3,13.6,2.9,20.6,4.8c129.7,34.4,409.9,100.3,533.2,141.5
		c3.7,1.2,7.4,2.5,11.1,3.8c1.6,0.5,3.1,1.1,4.7,1.6l5.2,1.8c7.1,2.5,14.1,5,21.1,7.6c1.6,0.6,3.2,1.2,4.8,1.8
		c3.4,1.3,6.8,2.5,10.2,3.8c1.3,0.5,2.6,1,3.9,1.5c5.5,2.1,10.9,4.2,16.2,6.3c1.6,0.6,3.1,1.2,4.7,1.9c1.6,0.7,3.2,1.3,4.8,2
		c1.6,0.6,3.2,1.3,4.8,1.9c1.6,0.6,3.2,1.3,4.8,1.9c6.3,2.6,12.5,5.2,18.6,7.7c1.5,0.6,3,1.3,4.5,1.9c12,5.1,23.3,10.1,34,14.9
		c1,0.4,2,0.9,2.9,1.3c1.4,0.6,2.7,1.2,4,1.8c1.5,0.7,3,1.4,4.5,2.1c2,0.9,3.9,1.8,5.8,2.7c0.5,0.3,1.1,0.5,1.6,0.8
		c5.6,2.6,11,5.1,16.1,7.5c1,0.5,1.9,0.9,2.9,1.4c0.6,0.3,1.1,0.5,1.7,0.8c1,0.5,2.1,1,3.1,1.5c1.6,0.8,3.2,1.5,4.7,2.3
		c0.9,0.4,1.7,0.8,2.5,1.2c2.1,1,4.1,2,6.1,3c0.7,0.4,1.5,0.7,2.2,1c0,0,0.1,0.1,0.1,0.1c0.7,0.4,1.5,0.7,2.2,1.1
		c0.5,0.2,0.9,0.5,1.4,0.7c0.4,0.2,0.8,0.4,1.2,0.6c1.6,0.8,3.2,1.6,4.6,2.3c0.6,0.3,1.3,0.6,1.9,0.9c0.4,0.2,0.8,0.4,1.2,0.6
		c0.6,0.3,1.2,0.6,1.9,0.9c0.3,0.2,0.6,0.3,0.9,0.5C1775.8,787.5,1775.9,787.5,1776,787.6z"/>
	<path id="XMLID_147_" fill-rule="evenodd" clip-rule="evenodd" fill="#54C0E0" d="M820.6,579.3 M820.6,579.3
		C820.6,579.3,820.6,579.3,820.6,579.3C820.6,579.3,820.6,579.3,820.6,579.3L820.6,579.3z M820.7,579.4
		C820.7,579.4,820.7,579.4,820.7,579.4C820.7,579.4,820.7,579.4,820.7,579.4z M820.7,579.4C820.7,579.4,820.7,579.4,820.7,579.4
		C820.7,579.4,820.7,579.4,820.7,579.4L820.7,579.4z M1780.9,807.6L1780.9,807.6z M1780.8,807.7
		C1780.8,807.7,1780.8,807.7,1780.8,807.7C1780.8,807.7,1780.8,807.7,1780.8,807.7z M1696.4,817L1696.4,817
		c-59.1,1-146.7-6.4-263.7-39.1c-39.6-11.1-81-22.4-122.6-33.6l0,0c41.6,11.2,83,22.5,122.6,33.6
		C1549.6,810.5,1637.3,818,1696.4,817L1696.4,817z"/>
	<path id="XMLID_66_" fill-rule="evenodd" clip-rule="evenodd" fill="#E2E2E2" d="M1696.4,817c44.7-0.7,72.6-6.3,84.4-9.3
		c0,0,0,0,0.1,0c0,0,0,0,0,0c0,0,0,0,0,0c2.3-0.6,4.3-1.9,5.8-3.6c-3.7,0.2-7.8,0.3-12.1,0.4c-4.8,0.1-10,0.1-15.5,0.1l5.2,6.7
		C1749.2,813.7,1726.6,816.5,1696.4,817c-2.1,0-4.3,0.1-6.5,0.1l-19.8-18.2c-146.4-15.8-270.4-61.8-403.6-88l41,32.7
		c-72.3-19.7-123.3-32.9-191.3-51c-3.9-6.4-6.3-21.2-8.3-26.7c-108-28.4-202-54-224.1-63.2c-24.9-10.4-49.8-22.1-63.5-33.1
		c-1.3,3-1.3,6.7,0.5,9.7c0,0,0,0,0,0c0,0,0,0,0,0c0,0,0,0,0,0c0,0,0,0,0,0c0,0,0,0,0,0c0,0,0,0,0,0c0,0,0,0,0,0l0,0
		c8.1,13.4,24.9,32.4,57.2,46c16.8,7,69.6,21.9,141.1,41.2c80.8,21.8,186.5,49.4,291.2,77.7c41.6,11.2,83,22.5,122.6,33.6
		C1549.6,810.5,1637.3,818,1696.4,817"/>
	<path id="XMLID_65_" fill-rule="evenodd" clip-rule="evenodd" fill="#D0D0D0" d="M1696.4,817c30.2-0.5,52.8-3.2,67.9-5.9l-5.2-6.7
		c-23.6-0.2-53.6-1.8-89-5.6l19.8,18.2C1692.1,817,1694.2,817,1696.4,817"/>
	<path id="XMLID_64_" fill-rule="evenodd" clip-rule="evenodd" fill="#D0D0D0" d="M1307.4,743.5l-41-32.7
		c-21.9-5.2-51-14.5-77.3-21.5c-35.8-9.5-70.1-21.9-86.9-41.1l13.8,44.3C1184,710.6,1235,723.8,1307.4,743.5"/>
	<path id="XMLID_91_" fill-rule="evenodd" clip-rule="evenodd" fill="#555965" d="M894,547.5C894,547.5,894,547.5,894,547.5
		l-14.9,9.5c-0.5,0.3-1.1,0.4-1.7,0.3l-20-5.4l-1.6-0.4l0,0c0.3-0.1,0.5-0.2,0.8-0.2c1.8-0.6,3.6-1.2,5.5-1.7
		c3.2-0.9,6.5-1.9,9.9-2.7c4.6-1.2,9.4-2.2,14.5-3.2l0,0l7.1,1.9C894.6,545.7,894.8,547,894,547.5z"/>
	<path id="XMLID_62_" fill-rule="evenodd" clip-rule="evenodd" fill="#555965" d="M902.8,547.9l11.7,3.1c2.1,0.6,2.9,3.3,1.5,5.1
		l-3.3,4.3c-2.5,3.2-6.4,4.6-10.2,3.6l-16.4-4.5c-1.1-0.3-1.3-1.8-0.3-2.4l13.7-8.7C900.5,547.8,901.7,547.6,902.8,547.9"/>
	<path id="XMLID_61_" fill-rule="evenodd" clip-rule="evenodd" fill="#1D72D2" d="M1619.7,748l-12.6-7c0,0,22.8,0.7,69.1,13.2
		c46.8,12.6,141.9,43.7,141.9,43.7L1619.7,748z"/>
	<path id="XMLID_60_" fill-rule="evenodd" clip-rule="evenodd" fill="#D6E7EA" d="M1607.1,741c0,0,15.4,16.7,66.9,30.7
		c45.3,12.3,119.8,26.1,138.6,29.5c2.5,0.5,4.8-1,5.5-3.3l0,0L1607.1,741z"/>
	<path id="XMLID_59_" fill-rule="evenodd" clip-rule="evenodd" fill="#1D54AC" d="M1813.6,801.3c2.1,0,3.9-1.4,4.5-3.4l0,0
		l-211-56.8c0,0,0.6,0.7,2.1,2c5.7,4.8,23.8,17.6,64.8,28.8c20.8,5.6,47.7,11.6,72.6,16.7c15.7,3.2,30.6,6.2,42.7,8.4
		c10.4,2,18.7,3.5,23.4,4.4C1812.9,801.3,1813.3,801.3,1813.6,801.3"/>
	<path id="XMLID_55_" fill-rule="evenodd" clip-rule="evenodd" fill="#BEBEBE" d="M1181.2,705.3l3.7,1c0.9,0.2,1.4,1.2,1.2,2.1
		l-1.6,6.2c-0.2,0.9-1.1,1.5-2,1.2l-3.7-1c-0.9-0.2-1.4-1.2-1.2-2.1l1.6-6.2C1179.4,705.6,1180.4,705.1,1181.2,705.3"/>
	<path id="XMLID_54_" fill-rule="evenodd" clip-rule="evenodd" fill="#C8CBD2" d="M1177.1,701.3l5,1.4c0.6,0.2,1,0.8,0.8,1.4
		l-3.3,12.5c-0.2,0.6-0.8,1-1.4,0.8l-5-1.4c-0.6-0.2-1-0.8-0.8-1.4l3.3-12.5C1175.8,701.6,1176.5,701.2,1177.1,701.3"/>
	<path id="XMLID_53_" fill-rule="evenodd" clip-rule="evenodd" fill="#D0D0D0" d="M1168.8,692.7l5.6,1.6c3.1,0.9,4.9,4.2,4.1,7.4
		l-3.9,15c-0.8,3.2-4,5.1-7.1,4.2l-5.6-1.6L1168.8,692.7z"/>
	<path id="XMLID_52_" fill-rule="evenodd" clip-rule="evenodd" fill="#555965" d="M1160.8,685.1l7.7,2.1c4.2,1.2,6.7,5.7,5.6,10.1
		l-5.4,20.6c-1.1,4.4-5.5,7-9.7,5.8l-7.7-2.2L1160.8,685.1z"/>
	<linearGradient id="XMLID_102_" gradientUnits="userSpaceOnUse" x1="1069.7728" y1="691.4871" x2="1167.1549" y2="691.4871">
		<stop  offset="0.1505" style="stop-color:#1D72D2"/>
		<stop  offset="1" style="stop-color:#1D54AC"/>
	</linearGradient>
	<path id="XMLID_51_" fill-rule="evenodd" clip-rule="evenodd" fill="url(#XMLID_102_)" d="M1091.7,655.2l70.2,22.4
		c12.6,4,0,53.5-13.1,50.5l-71.6-16.6C1060.4,707.6,1075,649.8,1091.7,655.2"/>
	<path id="XMLID_50_" fill-rule="evenodd" clip-rule="evenodd" fill="#16438E" d="M1074.6,710.3c-11.8-8.6-0.2-54.1,14.3-55.4
		L1074.6,710.3z"/>
	<path id="XMLID_49_" fill-rule="evenodd" clip-rule="evenodd" fill="#555965" d="M1028.8,600.5L1028.8,600.5c2.2,0.6,4.3-0.7,4.9-3
		l1.2-4.6c0.6-2.2-0.7-4.5-2.8-5l-0.1,0c-2.1-0.6-4.2,0.8-4.8,3l-1.2,4.6C1025.5,597.7,1026.8,599.9,1028.8,600.5"/>
	<path id="XMLID_48_" fill-rule="evenodd" clip-rule="evenodd" fill="#555965" d="M1041,603.8L1041,603.8c2.2,0.6,4.3-0.7,4.9-3
		l1.2-4.6c0.6-2.2-0.7-4.5-2.8-5l-0.1,0c-2.1-0.6-4.2,0.8-4.8,3l-1.2,4.6C1037.7,601,1038.9,603.2,1041,603.8"/>
	<path id="XMLID_47_" fill-rule="evenodd" clip-rule="evenodd" fill="#555965" d="M1053.2,607.1L1053.2,607.1c2.2,0.6,4.3-0.7,4.9-3
		l1.2-4.6c0.6-2.2-0.7-4.5-2.8-5l-0.1,0c-2.1-0.6-4.3,0.8-4.8,3l-1.2,4.6C1049.9,604.3,1051.1,606.5,1053.2,607.1"/>
	<path id="XMLID_46_" fill-rule="evenodd" clip-rule="evenodd" fill="#555965" d="M1065.4,610.4L1065.4,610.4c2.2,0.6,4.4-0.7,4.9-3
		l1.2-4.6c0.6-2.2-0.7-4.5-2.8-5.1l-0.1,0c-2.1-0.6-4.3,0.8-4.8,3l-1.2,4.6C1062.1,607.6,1063.3,609.9,1065.4,610.4"/>
	<path id="XMLID_45_" fill-rule="evenodd" clip-rule="evenodd" fill="#555965" d="M1077.7,613.8L1077.7,613.8c2.2,0.6,4.4-0.7,4.9-3
		l1.2-4.6c0.6-2.2-0.7-4.5-2.8-5.1l-0.1,0c-2.1-0.6-4.3,0.8-4.9,3l-1.2,4.6C1074.4,610.9,1075.6,613.2,1077.7,613.8"/>
	<path id="XMLID_44_" fill-rule="evenodd" clip-rule="evenodd" fill="#555965" d="M1090,617.1L1090,617.1c2.2,0.6,4.4-0.7,5-3
		l1.2-4.6c0.6-2.2-0.7-4.5-2.8-5.1l-0.1,0c-2.1-0.6-4.3,0.8-4.9,3l-1.2,4.6C1086.7,614.3,1087.9,616.5,1090,617.1"/>
	<path id="XMLID_43_" fill-rule="evenodd" clip-rule="evenodd" fill="#555965" d="M1102.4,620.5L1102.4,620.5c2.2,0.6,4.4-0.7,5-3
		l1.2-4.6c0.6-2.2-0.7-4.5-2.8-5.1l-0.1,0c-2.1-0.6-4.3,0.8-4.9,3l-1.2,4.6C1099,617.6,1100.2,619.9,1102.4,620.5"/>
	<path id="XMLID_42_" fill-rule="evenodd" clip-rule="evenodd" fill="#555965" d="M1114.8,623.8L1114.8,623.8c2.2,0.6,4.4-0.7,5-3
		l1.2-4.6c0.6-2.2-0.7-4.5-2.8-5.1l-0.1,0c-2.1-0.6-4.3,0.8-4.9,3l-1.2,4.6C1111.4,621,1112.6,623.2,1114.8,623.8"/>
	<path id="XMLID_41_" fill-rule="evenodd" clip-rule="evenodd" fill="#555965" d="M1127.2,627.2L1127.2,627.2c2.2,0.6,4.4-0.7,5-3
		l1.2-4.6c0.6-2.2-0.7-4.5-2.8-5.1l-0.1,0c-2.1-0.6-4.3,0.8-4.9,3l-1.2,4.6C1123.8,624.3,1125,626.6,1127.2,627.2"/>
	<path id="XMLID_40_" fill-rule="evenodd" clip-rule="evenodd" fill="#555965" d="M1127.2,627.2L1127.2,627.2c2.2,0.6,4.4-0.7,5-3
		l1.2-4.6c0.6-2.2-0.7-4.5-2.8-5.1l-0.1,0c-2.1-0.6-4.3,0.8-4.9,3l-1.2,4.6C1123.8,624.4,1125.1,626.7,1127.2,627.2"/>
	<path id="XMLID_39_" fill-rule="evenodd" clip-rule="evenodd" fill="#555965" d="M1139.7,630.6L1139.7,630.6c2.2,0.6,4.4-0.7,5-3
		l1.2-4.7c0.6-2.2-0.7-4.5-2.8-5.1l-0.1,0c-2.1-0.6-4.4,0.8-4.9,3l-1.2,4.6C1136.3,627.7,1137.5,630,1139.7,630.6"/>
	<path id="XMLID_38_" fill-rule="evenodd" clip-rule="evenodd" fill="#555965" d="M1152.2,634L1152.2,634c2.2,0.6,4.4-0.7,5-3
		l1.2-4.7c0.6-2.2-0.7-4.5-2.8-5.1l-0.1,0c-2.2-0.6-4.4,0.8-4.9,3l-1.2,4.7C1148.8,631.1,1150,633.4,1152.2,634"/>
	<path id="XMLID_37_" fill-rule="evenodd" clip-rule="evenodd" fill="#555965" d="M1164.7,637.4L1164.7,637.4c2.2,0.6,4.5-0.7,5-3
		l1.2-4.7c0.6-2.3-0.7-4.5-2.9-5.1l-0.1,0c-2.2-0.6-4.4,0.8-5,3l-1.2,4.7C1161.3,634.5,1162.6,636.8,1164.7,637.4"/>
	<path id="XMLID_36_" fill-rule="evenodd" clip-rule="evenodd" fill="#555965" d="M1177.3,640.8L1177.3,640.8c2.2,0.6,4.5-0.7,5.1-3
		l1.2-4.7c0.6-2.3-0.7-4.6-2.9-5.1l-0.1,0c-2.2-0.6-4.4,0.8-5,3l-1.2,4.7C1173.9,637.9,1175.1,640.2,1177.3,640.8"/>
	<path id="XMLID_35_" fill-rule="evenodd" clip-rule="evenodd" fill="#555965" d="M1189.9,644.2L1189.9,644.2c2.3,0.6,4.5-0.7,5.1-3
		l1.2-4.7c0.6-2.3-0.7-4.6-2.9-5.1l-0.1,0c-2.2-0.6-4.4,0.8-5,3l-1.2,4.7C1186.5,641.4,1187.7,643.7,1189.9,644.2"/>
	<path id="XMLID_34_" fill-rule="evenodd" clip-rule="evenodd" fill="#555965" d="M1202.6,647.7L1202.6,647.7c2.3,0.6,4.5-0.7,5.1-3
		l1.2-4.7c0.6-2.3-0.7-4.6-2.9-5.2l-0.1,0c-2.2-0.6-4.4,0.8-5,3l-1.2,4.7C1199.1,644.8,1200.4,647.1,1202.6,647.7"/>
	<path id="XMLID_33_" fill-rule="evenodd" clip-rule="evenodd" fill="#555965" d="M1215.3,651.1L1215.3,651.1c2.3,0.6,4.5-0.7,5.1-3
		l1.2-4.7c0.6-2.3-0.7-4.6-2.9-5.2l-0.1,0c-2.2-0.6-4.4,0.8-5,3l-1.2,4.7C1211.8,648.2,1213.1,650.5,1215.3,651.1"/>
	<path id="XMLID_32_" fill-rule="evenodd" clip-rule="evenodd" fill="#555965" d="M1228,654.6L1228,654.6c2.3,0.6,4.5-0.7,5.1-3
		l1.2-4.7c0.6-2.3-0.7-4.6-2.9-5.2l-0.1,0c-2.2-0.6-4.4,0.8-5,3l-1.2,4.7C1224.5,651.7,1225.8,654,1228,654.6"/>
	<path id="XMLID_31_" fill-rule="evenodd" clip-rule="evenodd" fill="#555965" d="M1228,654.6L1228,654.6c2.3,0.6,4.5-0.7,5.1-3
		l1.2-4.7c0.6-2.3-0.7-4.6-2.9-5.2l-0.1,0c-2.2-0.6-4.4,0.8-5,3l-1.2,4.7C1224.5,651.7,1225.8,654,1228,654.6"/>
	<path id="XMLID_30_" fill-rule="evenodd" clip-rule="evenodd" fill="#555965" d="M1240.8,658.1L1240.8,658.1c2.3,0.6,4.5-0.7,5.1-3
		l1.2-4.7c0.6-2.3-0.7-4.6-2.9-5.2l-0.1,0c-2.2-0.6-4.5,0.8-5.1,3l-1.2,4.7C1237.3,655.2,1238.6,657.5,1240.8,658.1"/>
	<path id="XMLID_29_" fill-rule="evenodd" clip-rule="evenodd" fill="#555965" d="M1253.6,661.6L1253.6,661.6c2.3,0.6,4.6-0.7,5.2-3
		l1.2-4.7c0.6-2.3-0.7-4.6-2.9-5.2l-0.1,0c-2.2-0.6-4.5,0.8-5.1,3l-1.2,4.7C1250.1,658.7,1251.4,661,1253.6,661.6"/>
	<path id="XMLID_28_" fill-rule="evenodd" clip-rule="evenodd" fill="#555965" d="M1266.5,665.1L1266.5,665.1c2.3,0.6,4.6-0.7,5.2-3
		l1.2-4.7c0.6-2.3-0.7-4.6-2.9-5.2l-0.1,0c-2.2-0.6-4.5,0.8-5.1,3l-1.2,4.7C1263,662.1,1264.3,664.5,1266.5,665.1"/>
	<path id="XMLID_27_" fill-rule="evenodd" clip-rule="evenodd" fill="#555965" d="M1279.4,668.6L1279.4,668.6c2.3,0.6,4.6-0.7,5.2-3
		l1.2-4.7c0.6-2.3-0.7-4.6-2.9-5.2l-0.1,0c-2.2-0.6-4.5,0.8-5.1,3l-1.2,4.7C1275.8,665.6,1277.2,668,1279.4,668.6"/>
	<path id="XMLID_26_" fill-rule="evenodd" clip-rule="evenodd" fill="#555965" d="M1292.3,672.1L1292.3,672.1c2.3,0.6,4.6-0.7,5.2-3
		l1.2-4.7c0.6-2.3-0.7-4.6-3-5.2l-0.1,0c-2.2-0.6-4.5,0.8-5.1,3l-1.2,4.7C1288.8,669.1,1290.1,671.5,1292.3,672.1"/>
	<path id="XMLID_25_" fill-rule="evenodd" clip-rule="evenodd" fill="#555965" d="M1305.3,675.6L1305.3,675.6c2.3,0.6,4.6-0.7,5.2-3
		l1.2-4.7c0.6-2.3-0.7-4.6-3-5.2l-0.1,0c-2.2-0.6-4.5,0.8-5.1,3.1l-1.2,4.7C1301.7,672.6,1303.1,675,1305.3,675.6"/>
	<path id="XMLID_24_" fill-rule="evenodd" clip-rule="evenodd" fill="#555965" d="M1318.3,679.1L1318.3,679.1c2.3,0.6,4.6-0.7,5.2-3
		l1.2-4.8c0.6-2.3-0.7-4.6-3-5.2l-0.1,0c-2.2-0.6-4.5,0.8-5.1,3.1l-1.2,4.7C1314.7,676.2,1316.1,678.5,1318.3,679.1"/>
	<path id="XMLID_23_" fill-rule="evenodd" clip-rule="evenodd" fill="#555965" d="M1331.4,682.7L1331.4,682.7c2.3,0.6,4.6-0.7,5.2-3
		l1.3-4.8c0.6-2.3-0.7-4.6-3-5.3l-0.1,0c-2.2-0.6-4.6,0.8-5.2,3.1l-1.2,4.8C1327.8,679.7,1329.1,682.1,1331.4,682.7"/>
	<path id="XMLID_22_" fill-rule="evenodd" clip-rule="evenodd" fill="#555965" d="M1331.4,682.7L1331.4,682.7c2.3,0.6,4.6-0.7,5.2-3
		l1.2-4.8c0.6-2.3-0.7-4.6-3-5.3l-0.1,0c-2.3-0.6-4.6,0.8-5.2,3.1l-1.2,4.8C1327.8,679.8,1329.2,682.1,1331.4,682.7"/>
	<path id="XMLID_21_" fill-rule="evenodd" clip-rule="evenodd" fill="#555965" d="M1344.5,686.3L1344.5,686.3c2.3,0.6,4.7-0.7,5.3-3
		l1.3-4.8c0.6-2.3-0.7-4.7-3-5.3l-0.1,0c-2.3-0.6-4.6,0.8-5.2,3.1l-1.3,4.8C1340.9,683.3,1342.2,685.7,1344.5,686.3"/>
	<path id="XMLID_20_" fill-rule="evenodd" clip-rule="evenodd" fill="#555965" d="M1357.6,689.8L1357.6,689.8c2.3,0.6,4.7-0.7,5.3-3
		l1.3-4.8c0.6-2.3-0.7-4.7-3-5.3l-0.1,0c-2.3-0.6-4.6,0.8-5.2,3.1l-1.3,4.8C1354,686.9,1355.4,689.2,1357.6,689.8"/>
	<path id="XMLID_19_" fill-rule="evenodd" clip-rule="evenodd" fill="#555965" d="M1370.8,693.4L1370.8,693.4c2.4,0.6,4.7-0.7,5.3-3
		l1.3-4.8c0.6-2.3-0.7-4.7-3-5.3l-0.1,0c-2.3-0.6-4.6,0.8-5.2,3.1l-1.3,4.8C1367.2,690.4,1368.6,692.8,1370.8,693.4"/>
	<path id="XMLID_18_" fill-rule="evenodd" clip-rule="evenodd" fill="#555965" d="M1384,697L1384,697c2.4,0.6,4.7-0.7,5.3-3l1.3-4.8
		c0.6-2.3-0.7-4.7-3-5.3l-0.1,0c-2.3-0.6-4.6,0.8-5.2,3.1l-1.3,4.8C1380.4,694,1381.8,696.4,1384,697"/>
	<path id="XMLID_17_" fill-rule="evenodd" clip-rule="evenodd" fill="#555965" d="M1397.3,700.6L1397.3,700.6c2.4,0.6,4.7-0.7,5.3-3
		l1.3-4.8c0.6-2.3-0.7-4.7-3-5.3l-0.1,0c-2.3-0.6-4.6,0.8-5.2,3.1l-1.3,4.8C1393.7,697.6,1395,700,1397.3,700.6"/>
	<path id="XMLID_16_" fill-rule="evenodd" clip-rule="evenodd" fill="#555965" d="M1410.6,704.2L1410.6,704.2c2.4,0.6,4.7-0.7,5.3-3
		l1.3-4.8c0.6-2.3-0.8-4.7-3-5.3l-0.1,0c-2.3-0.6-4.6,0.8-5.3,3.1l-1.3,4.8C1407,701.2,1408.3,703.6,1410.6,704.2"/>
	<path id="XMLID_15_" fill-rule="evenodd" clip-rule="evenodd" fill="#555965" d="M1424,707.8L1424,707.8c2.4,0.6,4.7-0.7,5.4-3
		l1.3-4.8c0.6-2.3-0.8-4.7-3.1-5.3l-0.1,0c-2.3-0.6-4.7,0.8-5.3,3.1l-1.3,4.8C1420.3,704.8,1421.7,707.2,1424,707.8"/>
	<path id="XMLID_14_" fill-rule="evenodd" clip-rule="evenodd" fill="#555965" d="M1437.4,711.5L1437.4,711.5c2.4,0.7,4.8-0.7,5.4-3
		l1.3-4.8c0.6-2.3-0.8-4.7-3.1-5.3l-0.1,0c-2.3-0.6-4.7,0.8-5.3,3.1l-1.3,4.8C1433.7,708.5,1435.1,710.9,1437.4,711.5"/>
	<path id="XMLID_13_" fill-rule="evenodd" clip-rule="evenodd" fill="#555965" d="M1437.4,711.5L1437.4,711.5c2.4,0.7,4.8-0.7,5.4-3
		l1.3-4.8c0.6-2.3-0.8-4.7-3.1-5.3l-0.1,0c-2.3-0.6-4.7,0.8-5.3,3.1l-1.3,4.8C1433.7,708.5,1435.1,710.9,1437.4,711.5"/>
	<path id="XMLID_12_" fill-rule="evenodd" clip-rule="evenodd" fill="#555965" d="M1450.8,715.2L1450.8,715.2c2.4,0.7,4.8-0.7,5.4-3
		l1.3-4.8c0.6-2.3-0.8-4.7-3.1-5.3l-0.1,0c-2.3-0.6-4.7,0.8-5.3,3.1l-1.3,4.8C1447.2,712.2,1448.5,714.6,1450.8,715.2"/>
	<path id="XMLID_11_" fill-rule="evenodd" clip-rule="evenodd" fill="#555965" d="M1464.3,718.8L1464.3,718.8
		c2.4,0.7,4.8-0.7,5.4-3.1l1.3-4.8c0.6-2.3-0.8-4.7-3.1-5.4l-0.1,0c-2.3-0.6-4.7,0.8-5.3,3.1l-1.3,4.8
		C1460.6,715.8,1462,718.2,1464.3,718.8"/>
	<path id="XMLID_10_" fill-rule="evenodd" clip-rule="evenodd" fill="#555965" d="M1477.8,722.5L1477.8,722.5
		c2.4,0.7,4.8-0.7,5.4-3.1l1.3-4.8c0.6-2.3-0.8-4.7-3.1-5.4l-0.1,0c-2.3-0.6-4.7,0.8-5.3,3.1l-1.3,4.8
		C1474.1,719.5,1475.5,721.9,1477.8,722.5"/>
	<path id="XMLID_9_" fill-rule="evenodd" clip-rule="evenodd" fill="#555965" d="M1491.4,726.2L1491.4,726.2
		c2.4,0.7,4.8-0.7,5.4-3.1l1.3-4.8c0.6-2.3-0.8-4.7-3.1-5.4l-0.1,0c-2.3-0.6-4.7,0.8-5.4,3.1l-1.3,4.8
		C1487.7,723.1,1489.1,725.6,1491.4,726.2"/>
	<path id="XMLID_8_" fill-rule="evenodd" clip-rule="evenodd" fill="#555965" d="M1505,729.9L1505,729.9c2.4,0.7,4.8-0.7,5.5-3.1
		l1.3-4.9c0.6-2.3-0.8-4.8-3.1-5.4l-0.1,0c-2.3-0.6-4.7,0.8-5.4,3.1l-1.3,4.8C1501.3,726.8,1502.7,729.2,1505,729.9"/>
	<path id="XMLID_7_" fill-rule="evenodd" clip-rule="evenodd" fill="#555965" d="M1518.7,733.6L1518.7,733.6
		c2.4,0.7,4.9-0.7,5.5-3.1l1.3-4.9c0.6-2.3-0.8-4.8-3.1-5.4l-0.1,0c-2.3-0.6-4.8,0.8-5.4,3.1l-1.3,4.9
		C1514.9,730.5,1516.3,732.9,1518.7,733.6"/>
	<path id="XMLID_6_" fill-rule="evenodd" clip-rule="evenodd" fill="#555965" d="M1532.4,737.3L1532.4,737.3
		c2.4,0.7,4.9-0.7,5.5-3.1l1.3-4.9c0.6-2.3-0.8-4.8-3.1-5.4l-0.1,0c-2.4-0.6-4.8,0.7-5.4,3.1l-1.3,4.9
		C1528.6,734.2,1530,736.7,1532.4,737.3"/>
	<path id="XMLID_5_" fill-rule="evenodd" clip-rule="evenodd" fill="#555965" d="M1546.1,741L1546.1,741c2.5,0.7,4.9-0.7,5.5-3.1
		l1.3-4.9c0.6-2.4-0.8-4.8-3.1-5.4l-0.1,0c-2.4-0.6-4.8,0.8-5.4,3.1l-1.3,4.9C1542.3,738,1543.7,740.4,1546.1,741"/>
	<g id="XMLID_74_">
		<path id="XMLID_58_" fill-rule="evenodd" clip-rule="evenodd" fill="#1D95E1" d="M1116.7,653.5l-13.6-8.7c0,0,37.7-0.2,97.5,16.1
			c60.5,16.6,153.9,44,214.3,51.7c0,0-137.1-10.9-148.9-13.8C1254.2,696,1116.7,653.5,1116.7,653.5"/>
		<g id="XMLID_63_">
			<path id="XMLID_57_" fill-rule="evenodd" clip-rule="evenodd" fill="#16438E" d="M1103.2,644.9c0,0,238.4,62.5,370.5,74.6
				l55.9,15.2c0,0-143.1,12.4-277.6-23.7C1194,695.4,1097.9,665.3,1103.2,644.9"/>
			<linearGradient id="XMLID_103_" gradientUnits="userSpaceOnUse" x1="1103.0325" y1="690.3533" x2="1532.0698" y2="690.3533">
				<stop  offset="0.1505" style="stop-color:#1D72D2"/>
				<stop  offset="1" style="stop-color:#074AB3"/>
			</linearGradient>
			<path id="XMLID_56_" fill-rule="evenodd" clip-rule="evenodd" fill="url(#XMLID_103_)" d="M1532.1,735.8l-55.9-15.2
				c-132.2-12.1-373-75.7-373-75.7c-0.1,0.4-0.1,0.8-0.1,1.2c0,1.4,0.8,2.8,2,4.3c18.1,20.7,152,51.3,152,51.3
				c20.1,5.5,40.3,10.2,60.1,14.1c35.7,7,70.3,11.6,101,14.6C1484.5,736.8,1532.1,735.8,1532.1,735.8"/>
			<path id="XMLID_4_" fill-rule="evenodd" clip-rule="evenodd" fill="#1D72D2" d="M1532.1,735.8l-55.9-15.2
				c27.4-5.6,50.3-26.7,74.4-47.1c3.3-2.8,7.3-1.6,11.7-0.5l8.3,2.2L1532.1,735.8z"/>
		</g>
	</g>
	<path id="XMLID_81_" fill-rule="evenodd" clip-rule="evenodd" fill="#888888" d="M1006.2,574.8l12.2,3.3c0.7,0.2,1.1,1,0.9,1.7
		l-9.2,35.9c-0.2,0.8-0.9,1.2-1.7,1l-12.1-3.3c-0.7-0.2-1.1-1-0.9-1.7l9.2-35.8C1004.8,575.1,1005.5,574.7,1006.2,574.8
		 M1018.8,576.6l-12.2-3.3c-1.5-0.4-3,0.6-3.5,2.2l-9.2,35.8c-0.4,1.6,0.5,3.2,2,3.6l12.1,3.3c1.5,0.4,3.1-0.6,3.5-2.1l9.2-35.9
		C1021.2,578.6,1020.3,577,1018.8,576.6z"/>
</g>
<path id="XMLID_86_" opacity="0.45" fill-rule="evenodd" clip-rule="evenodd" fill="#FFFFFF" d="M1920,745.8V1080H805.2
	c-12.3-23.4-23.4-47.6-33.3-72.3c34.5-29.4,79.2-47.2,128-47.2h0.4c12.9,0,25.3-3.5,36-10.1c7.6-4.7,14.3-10.9,19.6-18.5
	c37-53.5,98.8-88.5,168.8-88.5c80.5,0,150.2,46.3,183.8,113.8c4,8.1,13,12.4,21.9,10.6c0.2,0,0.4-0.1,0.7-0.1
	c7.4-1.5,13.2-7.2,15.2-14.5c17.3-63.3,75.2-109.8,144-109.8h0.4c22.9,0.1,44.9-9.7,59.5-27.3c54.5-65.5,136.7-107.2,228.7-106.7
	C1830.1,709.6,1878.2,722.8,1920,745.8z"/>
<linearGradient id="XMLID_104_" gradientUnits="userSpaceOnUse" x1="242.1638" y1="805.1458" x2="242.1638" y2="618.1517">
	<stop  offset="0.1505" style="stop-color:#1D72D2"/>
	<stop  offset="1" style="stop-color:#074AB3"/>
</linearGradient>
<rect id="XMLID_79_" x="111.4" y="696.1" fill-rule="evenodd" clip-rule="evenodd" fill="url(#XMLID_104_)" width="261.6" height="73.2"/>
<text id="XMLID_80_" transform="matrix(1 0 0 1 174.3943 743.3302)" fill="#FFFFFF" font-family="'OpenSans'" font-size="28.7374px">Book Now</text>
<linearGradient id="XMLID_105_" gradientUnits="userSpaceOnUse" x1="0" y1="68.8894" x2="1920" y2="68.8894">
	<stop  offset="0.1505" style="stop-color:#1D72D2"/>
	<stop  offset="1" style="stop-color:#074AB3"/>
</linearGradient>
<rect id="XMLID_82_" fill-rule="evenodd" clip-rule="evenodd" fill="url(#XMLID_105_)" width="1920" height="137.8"/>
<linearGradient id="XMLID_106_" gradientUnits="userSpaceOnUse" x1="1555.6809" y1="68.2169" x2="1893.1488" y2="68.2169">
	<stop  offset="4.301075e-002" style="stop-color:#F0F1F3"/>
	<stop  offset="1" style="stop-color:#D1D1D1"/>
</linearGradient>
<rect id="XMLID_87_" x="1555.7" y="45.2" fill-rule="evenodd" clip-rule="evenodd" fill="url(#XMLID_106_)" width="337.5" height="46"/>
<text id="XMLID_85_" transform="matrix(1 0 0 1 1679.407 78.7595)" fill="#717171" font-family="'OpenSans'" font-size="29.91px">search</text>
<text id="XMLID_88_" transform="matrix(1 0 0 1 372.973 78.7599)" fill="#FFFFFF" font-family="'OpenSans-Bold'" font-size="29.0025px">Home</text>
<text id="XMLID_94_" transform="matrix(1 0 0 1 114.7027 92.2451)" fill="#FFFFFF" font-family="'OpenSans-BoldItalic'" font-size="80.7625px">trvl.</text>
<text id="XMLID_89_" transform="matrix(1 0 0 1 522.973 78.7599)" fill="#FFFFFF" font-family="'OpenSans'" font-size="29.0025px">Trip</text>
<text id="XMLID_90_" transform="matrix(1 0 0 1 650.973 78.7599)" fill="#FFFFFF" font-family="'OpenSans'" font-size="29.0025px">Voucher</text>
<text id="XMLID_92_" transform="matrix(1 0 0 1 822.973 78.7599)" fill="#FFFFFF" font-family="'OpenSans'" font-size="29.0025px">E-Ticket</text>
<text id="XMLID_95_" transform="matrix(1 0 0 1 995.3848 78.7599)" fill="#FFFFFF" font-family="'OpenSans'" font-size="29.0025px">About</text>
<text id="XMLID_84_" transform="matrix(1 0 0 1 111.3545 451.8273)" fill="#1D71D1" font-family="'OpenSans-BoldItalic'" font-size="70.6996px">Get Voucher</text>
<rect id="XMLID_96_" x="117" y="503.4" fill-rule="evenodd" clip-rule="evenodd" fill="none" width="498" height="157.4"/>
<text id="XMLID_97_" transform="matrix(1 0 0 1 117 517.0634)"><tspan x="0" y="0" font-family="'OpenSans'" font-size="18px">Lorem ipsum dolor sit amet, consectetur adipiscing elit. </tspan><tspan x="0" y="26" font-family="'OpenSans'" font-size="18px">Curabitur viverra velit at tristique blandit. Vestibulum </tspan><tspan x="0" y="52" font-family="'OpenSans'" font-size="18px">dictum odio ac semper pellentesque. Etiam rutrum </tspan><tspan x="0" y="78" font-family="'OpenSans'" font-size="18px">fermentum leo, malesuada vehicula risus consectetur eu. </tspan><tspan x="0" y="104" font-family="'OpenSans'" font-size="18px">Aenean facilisis tristique magna, pharetra ornare libero </tspan><tspan x="0" y="130" font-family="'OpenSans'" font-size="18px">dignissim sed.</tspan></text>
</svg>
